<?xml version="1.0" encoding="utf-8"?>
<!-- Generator: Adobe Illustrator 15.0.0, SVG Export Plug-In . SVG Version: 6.00 Build 0)  -->
<!DOCTYPE svg PUBLIC "-//W3C//DTD SVG 1.1//EN" "http://www.w3.org/Graphics/SVG/1.1/DTD/svg11.dtd" [
	<!ENTITY ns_flows "http://ns.adobe.com/Flows/1.0/">
	<!ENTITY ns_extend "http://ns.adobe.com/Extensibility/1.0/">
	<!ENTITY ns_ai "http://ns.adobe.com/AdobeIllustrator/10.0/">
	<!ENTITY ns_graphs "http://ns.adobe.com/Graphs/1.0/">
	<!ENTITY ns_vars "http://ns.adobe.com/Variables/1.0/">
	<!ENTITY ns_imrep "http://ns.adobe.com/ImageReplacement/1.0/">
	<!ENTITY ns_sfw "http://ns.adobe.com/SaveForWeb/1.0/">
	<!ENTITY ns_custom "http://ns.adobe.com/GenericCustomNamespace/1.0/">
	<!ENTITY ns_adobe_xpath "http://ns.adobe.com/XPath/1.0/">
]>
<svg version="1.1" xmlns:x="&ns_extend;" xmlns:i="&ns_ai;" xmlns:graph="&ns_graphs;"
	 xmlns="http://www.w3.org/2000/svg" xmlns:xlink="http://www.w3.org/1999/xlink" xmlns:a="http://ns.adobe.com/AdobeSVGViewerExtensions/3.0/"
	 x="0px" y="0px" width="100px" height="100px" viewBox="0 0 100 100" enable-background="new 0 0 100 100" xml:space="preserve">
<metadata>
	<sfw  xmlns="&ns_sfw;">
		<slices></slices>
		<sliceSourceBounds  width="36.188" height="87.762" y="-92.568" x="33.146" bottomLeftOrigin="true"></sliceSourceBounds>
	</sfw>
</metadata>
<g id="Layer_1">
</g>
<g id="Layer_2">
	<g>
		
			<linearGradient id="SVGID_1_" gradientUnits="userSpaceOnUse" x1="-14.9561" y1="131.7705" x2="122.7647" y2="-39.0274" gradientTransform="matrix(0.9958 -0.0914 0.0914 0.9958 -6.8521 5.3064)">
			<stop  offset="0" style="stop-color:#1F66FF"/>
			<stop  offset="1" style="stop-color:#99FFFF"/>
			<a:midPointStop  offset="0" style="stop-color:#1F66FF"/>
			<a:midPointStop  offset="0.5" style="stop-color:#1F66FF"/>
			<a:midPointStop  offset="1" style="stop-color:#99FFFF"/>
		</linearGradient>
		<path fill="url(#SVGID_1_)" d="M53.519,4.805c-2.668,7.259-4.764,16.254-8.149,23.111c-1.124,2.335-13.28,2.28-10.905,3.847
			c3.798,2.479,10.344,2.473,14.758,3.556c4.578,1.217,9.944,2.956,12.845,7.004c3.746,5.16,3.377,12.484,1.371,18.172
			c-1.753,5.219-4.888,9.971-7.727,14.693c-3.872,6.455-3.158,13.096-9.311,17.379"/>
	</g>
	<g>
		
			<linearGradient id="SVGID_2_" gradientUnits="userSpaceOnUse" x1="-17.3374" y1="135.2715" x2="120.3805" y2="-35.5229" gradientTransform="matrix(-0.9331 -0.3595 -0.3595 0.9331 114.9166 18.1677)">
			<stop  offset="0" style="stop-color:#1F66FF"/>
			<stop  offset="1" style="stop-color:#99FFFF"/>
			<a:midPointStop  offset="0" style="stop-color:#1F66FF"/>
			<a:midPointStop  offset="0.5" style="stop-color:#1F66FF"/>
			<a:midPointStop  offset="1" style="stop-color:#99FFFF"/>
		</linearGradient>
		<path fill="url(#SVGID_2_)" d="M57.932,5.349c0.585,7.711,0.719,17.565,2.105,25.086c0.444,2.553,11.585,5.187,8.872,6.046
			c-4.329,1.349-10.624-0.441-15.169-0.604c-4.735-0.077-10.373,0.133-14.269,3.236c-5.011,3.943-6.652,11.089-6.274,17.112
			c0.263,5.498,1.983,10.925,3.426,16.242c1.964,7.267-0.534,13.46,4.218,19.259"/>
	</g>
</g>
</svg>
