<?xml version="1.0" encoding="utf-8"?>
<!-- Generator: Adobe Illustrator 15.0.0, SVG Export Plug-In . SVG Version: 6.00 Build 0)  -->
<!DOCTYPE svg PUBLIC "-//W3C//DTD SVG 1.1//EN" "http://www.w3.org/Graphics/SVG/1.1/DTD/svg11.dtd" [
	<!ENTITY ns_flows "http://ns.adobe.com/Flows/1.0/">
	<!ENTITY ns_extend "http://ns.adobe.com/Extensibility/1.0/">
	<!ENTITY ns_ai "http://ns.adobe.com/AdobeIllustrator/10.0/">
	<!ENTITY ns_graphs "http://ns.adobe.com/Graphs/1.0/">
	<!ENTITY ns_vars "http://ns.adobe.com/Variables/1.0/">
	<!ENTITY ns_imrep "http://ns.adobe.com/ImageReplacement/1.0/">
	<!ENTITY ns_sfw "http://ns.adobe.com/SaveForWeb/1.0/">
	<!ENTITY ns_custom "http://ns.adobe.com/GenericCustomNamespace/1.0/">
	<!ENTITY ns_adobe_xpath "http://ns.adobe.com/XPath/1.0/">
]>
<svg version="1.1" xmlns:x="&ns_extend;" xmlns:i="&ns_ai;" xmlns:graph="&ns_graphs;"
	 xmlns="http://www.w3.org/2000/svg" xmlns:xlink="http://www.w3.org/1999/xlink" xmlns:a="http://ns.adobe.com/AdobeSVGViewerExtensions/3.0/"
	 x="0px" y="0px" width="100px" height="100px" viewBox="0 0 100 100" enable-background="new 0 0 100 100" xml:space="preserve">
<metadata>
	<sfw  xmlns="&ns_sfw;">
		<slices></slices>
		<sliceSourceBounds  width="93.818" height="92.341" y="-95.483" x="3.678" bottomLeftOrigin="true"></sliceSourceBounds>
	</sfw>
</metadata>
<g id="Layer_1">
	<g opacity="0.75">
		<linearGradient id="SVGID_1_" gradientUnits="userSpaceOnUse" x1="31.4604" y1="30.1162" x2="53.5947" y2="30.1162">
			<stop  offset="0" style="stop-color:#FF9900"/>
			<stop  offset="0.6485" style="stop-color:#00FA00"/>
			<a:midPointStop  offset="0" style="stop-color:#FF9900"/>
			<a:midPointStop  offset="0.5" style="stop-color:#FF9900"/>
			<a:midPointStop  offset="0.6485" style="stop-color:#00FA00"/>
		</linearGradient>
		<path fill="url(#SVGID_1_)" d="M38.921,7.105c-2.792,4.996-11.316,18.075-5.437,31.594c5.877,13.52,14.989,13.667,19.399,14.401
			c4.406,0.734-13.08-13.665-12.934-20.279C40.097,26.208,38.921,7.105,38.921,7.105z"/>
		
			<linearGradient id="SVGID_2_" gradientUnits="userSpaceOnUse" x1="23.189" y1="28.0078" x2="45.3213" y2="28.0078" gradientTransform="matrix(0.2847 0.9586 -0.9586 0.2847 86.9528 -6.1736)">
			<stop  offset="0" style="stop-color:#FF9900"/>
			<stop  offset="0.6485" style="stop-color:#00FA00"/>
			<a:midPointStop  offset="0" style="stop-color:#FF9900"/>
			<a:midPointStop  offset="0.5" style="stop-color:#FF9900"/>
			<a:midPointStop  offset="0.6485" style="stop-color:#00FA00"/>
		</linearGradient>
		<path fill="url(#SVGID_2_)" d="M90.891,24.629c-5.582-1.254-20.547-5.7-31.834,3.784s-8.834,18.261-8.282,22.694
			c0.552,4.435,9.378-16.428,15.757-18.17C72.914,31.195,90.891,24.629,90.891,24.629z"/>
		
			<linearGradient id="SVGID_3_" gradientUnits="userSpaceOnUse" x1="31.9351" y1="20.1436" x2="54.0684" y2="20.1436" gradientTransform="matrix(0.9082 0.4186 -0.4186 0.9082 19.4389 -9.9887)">
			<stop  offset="0" style="stop-color:#FF9900"/>
			<stop  offset="0.6485" style="stop-color:#00FA00"/>
			<a:midPointStop  offset="0" style="stop-color:#FF9900"/>
			<a:midPointStop  offset="0.5" style="stop-color:#FF9900"/>
			<a:midPointStop  offset="0.6485" style="stop-color:#00FA00"/>
		</linearGradient>
		<path fill="url(#SVGID_3_)" d="M56.418,3.896c-4.629,3.369-17.842,11.68-18.163,26.418S46.147,49,49.844,51.512
			c3.697,2.514-6.158-17.885-3.258-23.829C49.489,21.738,56.418,3.896,56.418,3.896z"/>
		
			<linearGradient id="SVGID_4_" gradientUnits="userSpaceOnUse" x1="38.9893" y1="20.8394" x2="61.123" y2="20.8394" gradientTransform="matrix(0.7845 0.6201 -0.6201 0.7845 28.2646 -19.5315)">
			<stop  offset="0" style="stop-color:#FF9900"/>
			<stop  offset="0.6485" style="stop-color:#00FA00"/>
			<a:midPointStop  offset="0" style="stop-color:#FF9900"/>
			<a:midPointStop  offset="0.5" style="stop-color:#FF9900"/>
			<a:midPointStop  offset="0.6485" style="stop-color:#00FA00"/>
		</linearGradient>
		<path fill="url(#SVGID_4_)" d="M66.053,7.571c-5.291,2.188-20.087,7.163-23.86,21.414c-3.773,14.252,3.283,20.018,6.286,23.328
			c3.004,3.31-1.785-18.833,2.433-23.93C55.127,23.287,66.053,7.571,66.053,7.571z"/>
		
			<linearGradient id="SVGID_5_" gradientUnits="userSpaceOnUse" x1="-4.7891" y1="11.3291" x2="17.3452" y2="11.3291" gradientTransform="matrix(-0.0153 0.9999 -0.9999 -0.0153 85.8572 35.8256)">
			<stop  offset="0" style="stop-color:#FF9900"/>
			<stop  offset="0.6485" style="stop-color:#00FA00"/>
			<a:midPointStop  offset="0" style="stop-color:#FF9900"/>
			<a:midPointStop  offset="0.5" style="stop-color:#FF9900"/>
			<a:midPointStop  offset="0.6485" style="stop-color:#00FA00"/>
		</linearGradient>
		<path fill="url(#SVGID_5_)" d="M97.496,38.675c-4.953-2.868-17.896-11.589-31.506-5.92c-13.609,5.671-13.896,14.778-14.697,19.176
			c-0.801,4.397,13.865-12.869,20.473-12.621C78.377,39.559,97.496,38.675,97.496,38.675z"/>
		
			<linearGradient id="SVGID_6_" gradientUnits="userSpaceOnUse" x1="45.3481" y1="29.3623" x2="67.4824" y2="29.3623" gradientTransform="matrix(0.6271 0.7789 -0.7789 0.6271 48.7082 -33.5586)">
			<stop  offset="0" style="stop-color:#FF9900"/>
			<stop  offset="0.6485" style="stop-color:#00FA00"/>
			<a:midPointStop  offset="0" style="stop-color:#FF9900"/>
			<a:midPointStop  offset="0.5" style="stop-color:#FF9900"/>
			<a:midPointStop  offset="0.6485" style="stop-color:#00FA00"/>
		</linearGradient>
		<path fill="url(#SVGID_6_)" d="M76.879,11.558c-5.645,0.96-21.176,2.522-28.023,15.579c-6.842,13.057-1.244,20.246,0.949,24.141
			c2.191,3.896,2.441-18.758,7.686-22.791C62.734,24.455,76.879,11.558,76.879,11.558z"/>
		
			<linearGradient id="SVGID_7_" gradientUnits="userSpaceOnUse" x1="32.4673" y1="30.4912" x2="54.6006" y2="30.4912" gradientTransform="matrix(-0.974 -0.2267 0.2267 -0.974 90.766 111.8202)">
			<stop  offset="0" style="stop-color:#FF9900"/>
			<stop  offset="0.6485" style="stop-color:#00FA00"/>
			<a:midPointStop  offset="0" style="stop-color:#FF9900"/>
			<a:midPointStop  offset="0.5" style="stop-color:#FF9900"/>
			<a:midPointStop  offset="0.6485" style="stop-color:#00FA00"/>
		</linearGradient>
		<path fill="url(#SVGID_7_)" d="M53.572,95.483c3.852-4.232,15.119-15.037,12.457-29.539
			c-2.658-14.499-11.502-16.708-15.627-18.421c-4.13-1.715,9.639,16.273,7.998,22.681C56.758,76.61,53.572,95.483,53.572,95.483z"/>
		
			<linearGradient id="SVGID_8_" gradientUnits="userSpaceOnUse" x1="23.8325" y1="27.1465" x2="45.9678" y2="27.1465" gradientTransform="matrix(-0.06 -0.9982 0.9982 -0.06 4.6775 98.1225)">
			<stop  offset="0" style="stop-color:#FF9900"/>
			<stop  offset="0.6485" style="stop-color:#00FA00"/>
			<a:midPointStop  offset="0" style="stop-color:#FF9900"/>
			<a:midPointStop  offset="0.5" style="stop-color:#FF9900"/>
			<a:midPointStop  offset="0.6485" style="stop-color:#00FA00"/>
		</linearGradient>
		<path fill="url(#SVGID_8_)" d="M6.928,66.634c5.153,2.49,18.721,10.215,31.863,3.535C51.932,63.487,51.533,54.383,52,49.94
			c0.469-4.445-12.856,13.875-19.465,14.123C25.925,64.317,6.928,66.634,6.928,66.634z"/>
		
			<linearGradient id="SVGID_9_" gradientUnits="userSpaceOnUse" x1="33.0078" y1="20.0596" x2="55.1406" y2="20.0596" gradientTransform="matrix(-0.7897 -0.6135 0.6135 -0.7897 69.569 117.1414)">
			<stop  offset="0" style="stop-color:#FF9900"/>
			<stop  offset="0.6485" style="stop-color:#00FA00"/>
			<a:midPointStop  offset="0" style="stop-color:#FF9900"/>
			<a:midPointStop  offset="0.5" style="stop-color:#FF9900"/>
			<a:midPointStop  offset="0.6485" style="stop-color:#00FA00"/>
		</linearGradient>
		<path fill="url(#SVGID_9_)" d="M35.804,94.646c5.271-2.236,20.024-7.334,23.676-21.617c3.654-14.279-3.451-19.987-6.482-23.271
			c-3.028-3.285,1.945,18.816-2.227,23.947C46.598,78.837,35.804,94.646,35.804,94.646z"/>
		
			<linearGradient id="SVGID_10_" gradientUnits="userSpaceOnUse" x1="40.0122" y1="20.5083" x2="62.1465" y2="20.5083" gradientTransform="matrix(-0.6235 -0.7818 0.7818 -0.6235 58.8096 124.4358)">
			<stop  offset="0" style="stop-color:#FF9900"/>
			<stop  offset="0.6485" style="stop-color:#00FA00"/>
			<a:midPointStop  offset="0" style="stop-color:#FF9900"/>
			<a:midPointStop  offset="0.5" style="stop-color:#FF9900"/>
			<a:midPointStop  offset="0.6485" style="stop-color:#00FA00"/>
		</linearGradient>
		<path fill="url(#SVGID_10_)" d="M27.252,88.88c5.65-0.932,21.188-2.422,28.091-15.447c6.908-13.025,1.342-20.241-0.834-24.146
			c-2.174-3.903-2.529,18.748-7.793,22.758C41.456,76.052,27.252,88.88,27.252,88.88z"/>
		
			<linearGradient id="SVGID_11_" gradientUnits="userSpaceOnUse" x1="-4.4297" y1="10.3164" x2="17.7026" y2="10.3164" gradientTransform="matrix(0.2415 -0.9704 0.9704 0.2415 15.2649 57.4646)">
			<stop  offset="0" style="stop-color:#FF9900"/>
			<stop  offset="0.6485" style="stop-color:#00FA00"/>
			<a:midPointStop  offset="0" style="stop-color:#FF9900"/>
			<a:midPointStop  offset="0.5" style="stop-color:#FF9900"/>
			<a:midPointStop  offset="0.6485" style="stop-color:#00FA00"/>
		</linearGradient>
		<path fill="url(#SVGID_11_)" d="M3.678,51.457c4.173,3.915,14.806,15.345,29.346,12.909c14.539-2.438,16.883-11.245,18.66-15.345
			c1.775-4.101-16.421,9.388-22.801,7.65C22.5,54.931,3.678,51.457,3.678,51.457z"/>
		
			<linearGradient id="SVGID_12_" gradientUnits="userSpaceOnUse" x1="46.2729" y1="28.8145" x2="68.4063" y2="28.8145" gradientTransform="matrix(-0.4342 -0.9008 0.9008 -0.4342 35.7188 133.4646)">
			<stop  offset="0" style="stop-color:#FF9900"/>
			<stop  offset="0.6485" style="stop-color:#00FA00"/>
			<a:midPointStop  offset="0" style="stop-color:#FF9900"/>
			<a:midPointStop  offset="0.5" style="stop-color:#FF9900"/>
			<a:midPointStop  offset="0.6485" style="stop-color:#00FA00"/>
		</linearGradient>
		<path fill="url(#SVGID_12_)" d="M17.614,82.542c5.711,0.348,21.195,2.346,30.822-8.822c9.625-11.164,5.803-19.437,4.551-23.726
			c-1.254-4.289-6.633,17.718-12.654,20.454C34.313,73.188,17.614,82.542,17.614,82.542z"/>
		
			<linearGradient id="SVGID_13_" gradientUnits="userSpaceOnUse" x1="32.4277" y1="28.2334" x2="54.5625" y2="28.2334" gradientTransform="matrix(0.0918 0.9958 -0.9958 0.0918 93.4584 -6.0364)">
			<stop  offset="0" style="stop-color:#FF9900"/>
			<stop  offset="0.6485" style="stop-color:#00FA00"/>
			<a:midPointStop  offset="0" style="stop-color:#FF9900"/>
			<a:midPointStop  offset="0.5" style="stop-color:#FF9900"/>
			<a:midPointStop  offset="0.6485" style="stop-color:#00FA00"/>
		</linearGradient>
		<path fill="url(#SVGID_13_)" d="M91.922,34.163c-5.232-2.321-19.037-9.606-31.959-2.513c-12.924,7.095-12.234,16.181-12.561,20.64
			c-0.325,4.456,12.406-14.279,19.004-14.74C73.006,37.087,91.922,34.163,91.922,34.163z"/>
		
			<linearGradient id="SVGID_14_" gradientUnits="userSpaceOnUse" x1="21.6602" y1="26.5449" x2="43.7925" y2="26.5449" gradientTransform="matrix(-0.9284 0.3716 -0.3716 -0.9284 107.5919 79.9825)">
			<stop  offset="0" style="stop-color:#FF9900"/>
			<stop  offset="0.6485" style="stop-color:#00FA00"/>
			<a:midPointStop  offset="0" style="stop-color:#FF9900"/>
			<a:midPointStop  offset="0.5" style="stop-color:#FF9900"/>
			<a:midPointStop  offset="0.6485" style="stop-color:#00FA00"/>
		</linearGradient>
		<path fill="url(#SVGID_14_)" d="M79.244,87.521c0.734-5.674,3.789-20.982-6.693-31.352c-10.477-10.367-18.992-7.116-23.357-6.161
			c-4.365,0.957,17.221,7.829,19.539,14.022C71.057,70.224,79.244,87.521,79.244,87.521z"/>
		
			<linearGradient id="SVGID_15_" gradientUnits="userSpaceOnUse" x1="32.0254" y1="18.0303" x2="54.1592" y2="18.0303" gradientTransform="matrix(-0.3334 0.9428 -0.9428 -0.3334 105.1903 12.4032)">
			<stop  offset="0" style="stop-color:#FF9900"/>
			<stop  offset="0.6485" style="stop-color:#00FA00"/>
			<a:midPointStop  offset="0" style="stop-color:#FF9900"/>
			<a:midPointStop  offset="0.5" style="stop-color:#FF9900"/>
			<a:midPointStop  offset="0.6485" style="stop-color:#00FA00"/>
		</linearGradient>
		<path fill="url(#SVGID_15_)" d="M96.723,51.291c-3.781-4.299-13.27-16.694-27.973-15.66c-14.707,1.034-17.883,9.575-20.047,13.487
			c-2.162,3.911,17.246-7.774,23.432-5.431C78.322,46.031,96.723,51.291,96.723,51.291z"/>
		
			<linearGradient id="SVGID_16_" gradientUnits="userSpaceOnUse" x1="38.5815" y1="18.7622" x2="60.7148" y2="18.7622" gradientTransform="matrix(-0.5455 0.8381 -0.8381 -0.5455 115.5025 20.3154)">
			<stop  offset="0" style="stop-color:#FF9900"/>
			<stop  offset="0.6485" style="stop-color:#00FA00"/>
			<a:midPointStop  offset="0" style="stop-color:#FF9900"/>
			<a:midPointStop  offset="0.5" style="stop-color:#FF9900"/>
			<a:midPointStop  offset="0.6485" style="stop-color:#00FA00"/>
		</linearGradient>
		<path fill="url(#SVGID_16_)" d="M93.949,61.222c-2.664-5.066-8.979-19.343-23.516-21.791c-14.537-2.449-19.631,5.107-22.65,8.401
			c-3.02,3.293,18.588-3.507,24.051,0.224C77.297,51.785,93.949,61.222,93.949,61.222z"/>
		
			<linearGradient id="SVGID_17_" gradientUnits="userSpaceOnUse" x1="-6.6885" y1="10.3916" x2="15.4458" y2="10.3916" gradientTransform="matrix(-0.9971 0.0766 -0.0766 -0.9971 65.6686 82.7485)">
			<stop  offset="0" style="stop-color:#FF9900"/>
			<stop  offset="0.6485" style="stop-color:#00FA00"/>
			<a:midPointStop  offset="0" style="stop-color:#FF9900"/>
			<a:midPointStop  offset="0.5" style="stop-color:#FF9900"/>
			<a:midPointStop  offset="0.6485" style="stop-color:#00FA00"/>
		</linearGradient>
		<path fill="url(#SVGID_17_)" d="M65.865,95.39c2.4-5.195,9.896-18.887,3.002-31.918C61.969,50.442,52.875,50.994,48.422,50.6
			c-4.453-0.395,14.086,12.622,14.447,19.228C63.229,76.433,65.865,95.39,65.865,95.39z"/>
		
			<linearGradient id="SVGID_18_" gradientUnits="userSpaceOnUse" x1="44.4873" y1="27.4292" x2="66.6211" y2="27.4292" gradientTransform="matrix(-0.7181 0.696 -0.696 -0.7181 131.349 39.3845)">
			<stop  offset="0" style="stop-color:#FF9900"/>
			<stop  offset="0.6485" style="stop-color:#00FA00"/>
			<a:midPointStop  offset="0" style="stop-color:#FF9900"/>
			<a:midPointStop  offset="0.5" style="stop-color:#FF9900"/>
			<a:midPointStop  offset="0.6485" style="stop-color:#00FA00"/>
		</linearGradient>
		<path fill="url(#SVGID_18_)" d="M90.973,72.366c-1.475-5.529-4.455-20.853-18.084-26.47c-13.633-5.615-20.277,0.619-23.953,3.16
			c-3.676,2.542,18.902,0.71,23.4,5.563C76.832,59.468,90.973,72.366,90.973,72.366z"/>
		
			<linearGradient id="SVGID_19_" gradientUnits="userSpaceOnUse" x1="31.9541" y1="32.543" x2="54.0869" y2="32.543" gradientTransform="matrix(0.1363 -0.9907 0.9907 0.1363 -9.5536 94.6159)">
			<stop  offset="0" style="stop-color:#FF9900"/>
			<stop  offset="0.6485" style="stop-color:#00FA00"/>
			<a:midPointStop  offset="0" style="stop-color:#FF9900"/>
			<a:midPointStop  offset="0.5" style="stop-color:#FF9900"/>
			<a:midPointStop  offset="0.6485" style="stop-color:#00FA00"/>
		</linearGradient>
		<path fill="url(#SVGID_19_)" d="M5.261,56.868c4.569,3.447,16.364,13.672,30.56,9.691c14.194-3.98,15.582-12.985,16.908-17.253
			c1.33-4.269-15.318,11.093-21.852,10.046C24.347,58.308,5.261,56.868,5.261,56.868z"/>
		
			<linearGradient id="SVGID_20_" gradientUnits="userSpaceOnUse" x1="25.6553" y1="28.2246" x2="47.7891" y2="28.2246" gradientTransform="matrix(0.9885 -0.1514 0.1514 0.9885 -3.8204 7.6327)">
			<stop  offset="0" style="stop-color:#FF9900"/>
			<stop  offset="0.6485" style="stop-color:#00FA00"/>
			<a:midPointStop  offset="0" style="stop-color:#FF9900"/>
			<a:midPointStop  offset="0.5" style="stop-color:#FF9900"/>
			<a:midPointStop  offset="0.6485" style="stop-color:#00FA00"/>
		</linearGradient>
		<path fill="url(#SVGID_20_)" d="M29.704,7.772c-2.004,5.36-8.446,19.58-0.59,32.053C36.971,52.299,46,51.063,50.469,51.121
			c4.469,0.059-14.999-11.527-15.853-18.087C33.76,26.475,29.704,7.772,29.704,7.772z"/>
		
			<linearGradient id="SVGID_21_" gradientUnits="userSpaceOnUse" x1="33.3999" y1="22.1421" x2="55.5332" y2="22.1421" gradientTransform="matrix(0.5384 -0.8427 0.8427 0.5384 -16.7992 73.9967)">
			<stop  offset="0" style="stop-color:#FF9900"/>
			<stop  offset="0.6485" style="stop-color:#00FA00"/>
			<a:midPointStop  offset="0" style="stop-color:#FF9900"/>
			<a:midPointStop  offset="0.5" style="stop-color:#FF9900"/>
			<a:midPointStop  offset="0.6485" style="stop-color:#00FA00"/>
		</linearGradient>
		<path fill="url(#SVGID_21_)" d="M4.466,39.098c2.708,5.043,9.141,19.264,23.698,21.592c14.557,2.326,19.586-5.271,22.58-8.593
			c2.992-3.318-18.559,3.663-24.053-0.02C21.197,48.395,4.466,39.098,4.466,39.098z"/>
		
			<linearGradient id="SVGID_22_" gradientUnits="userSpaceOnUse" x1="40.8818" y1="22.438" x2="63.0156" y2="22.438" gradientTransform="matrix(0.7213 -0.6927 0.6927 0.7213 -25.0513 63.9532)">
			<stop  offset="0" style="stop-color:#FF9900"/>
			<stop  offset="0.6485" style="stop-color:#00FA00"/>
			<a:midPointStop  offset="0" style="stop-color:#FF9900"/>
			<a:midPointStop  offset="0.5" style="stop-color:#FF9900"/>
			<a:midPointStop  offset="0.6485" style="stop-color:#00FA00"/>
		</linearGradient>
		<path fill="url(#SVGID_22_)" d="M9.419,30.054c1.448,5.538,4.36,20.875,17.962,26.554c13.605,5.68,20.281-0.523,23.968-3.048
			s-18.901-0.797-23.375-5.67C23.499,43.02,9.419,30.054,9.419,30.054z"/>
		
			<linearGradient id="SVGID_23_" gradientUnits="userSpaceOnUse" x1="-2.3691" y1="10.7998" x2="19.7642" y2="10.7998" gradientTransform="matrix(0.9885 0.1514 -0.1514 0.9885 37.6381 14.441)">
			<stop  offset="0" style="stop-color:#FF9900"/>
			<stop  offset="0.6485" style="stop-color:#00FA00"/>
			<a:midPointStop  offset="0" style="stop-color:#FF9900"/>
			<a:midPointStop  offset="0.5" style="stop-color:#FF9900"/>
			<a:midPointStop  offset="0.6485" style="stop-color:#00FA00"/>
		</linearGradient>
		<path fill="url(#SVGID_23_)" d="M44.521,3.142c-3.517,4.515-13.923,16.153-10.161,30.406c3.762,14.254,12.748,15.78,16.995,17.173
			c4.246,1.393-10.858-15.489-9.712-22.003C42.791,22.203,44.521,3.142,44.521,3.142z"/>
		
			<linearGradient id="SVGID_24_" gradientUnits="userSpaceOnUse" x1="47.5479" y1="30.502" x2="69.6836" y2="30.502" gradientTransform="matrix(0.8571 -0.5151 0.5151 0.8571 -36.1621 41.7885)">
			<stop  offset="0" style="stop-color:#FF9900"/>
			<stop  offset="0.6485" style="stop-color:#00FA00"/>
			<a:midPointStop  offset="0" style="stop-color:#FF9900"/>
			<a:midPointStop  offset="0.5" style="stop-color:#FF9900"/>
			<a:midPointStop  offset="0.6485" style="stop-color:#00FA00"/>
		</linearGradient>
		<path fill="url(#SVGID_24_)" d="M14.845,19.874c0.181,5.72-0.389,21.321,11.615,29.881c12.004,8.559,19.889,3.993,24.046,2.351
			c4.156-1.641-18.251-4.975-21.533-10.72C25.694,35.643,14.845,19.874,14.845,19.874z"/>
	</g>
</g>
<g id="Layer_2">
	<g opacity="0.56">
		<linearGradient id="SVGID_25_" gradientUnits="userSpaceOnUse" x1="37.229" y1="35.9053" x2="52.6885" y2="35.9053">
			<stop  offset="0" style="stop-color:#CCFF33"/>
			<stop  offset="0.6485" style="stop-color:#003300"/>
			<a:midPointStop  offset="0" style="stop-color:#CCFF33"/>
			<a:midPointStop  offset="0.5" style="stop-color:#CCFF33"/>
			<a:midPointStop  offset="0.6485" style="stop-color:#003300"/>
		</linearGradient>
		<path fill="url(#SVGID_25_)" d="M42.439,19.835c-1.95,3.489-7.903,12.624-3.797,22.065c4.105,9.443,10.468,9.545,13.549,10.057
			c3.076,0.514-9.136-9.543-9.034-14.163C43.261,33.176,42.439,19.835,42.439,19.835z"/>
		
			<linearGradient id="SVGID_26_" gradientUnits="userSpaceOnUse" x1="29.1143" y1="34.8398" x2="44.5713" y2="34.8398" gradientTransform="matrix(0.2847 0.9586 -0.9586 0.2847 86.9528 -6.1736)">
			<stop  offset="0" style="stop-color:#CCFF33"/>
			<stop  offset="0.6485" style="stop-color:#003300"/>
			<a:midPointStop  offset="0" style="stop-color:#CCFF33"/>
			<a:midPointStop  offset="0.5" style="stop-color:#CCFF33"/>
			<a:midPointStop  offset="0.6485" style="stop-color:#003300"/>
		</linearGradient>
		<path fill="url(#SVGID_26_)" d="M78.734,32.073c-3.898-0.875-14.35-3.98-22.231,2.643c-7.884,6.623-6.17,12.753-5.785,15.85
			c0.386,3.098,6.55-11.473,11.005-12.69C66.18,36.659,78.734,32.073,78.734,32.073z"/>
		
			<linearGradient id="SVGID_27_" gradientUnits="userSpaceOnUse" x1="38.3213" y1="26.3794" x2="53.7793" y2="26.3794" gradientTransform="matrix(0.9082 0.4186 -0.4186 0.9082 19.4389 -9.9887)">
			<stop  offset="0" style="stop-color:#CCFF33"/>
			<stop  offset="0.6485" style="stop-color:#003300"/>
			<a:midPointStop  offset="0" style="stop-color:#CCFF33"/>
			<a:midPointStop  offset="0.5" style="stop-color:#CCFF33"/>
			<a:midPointStop  offset="0.6485" style="stop-color:#003300"/>
		</linearGradient>
		<path fill="url(#SVGID_27_)" d="M54.66,17.594c-3.232,2.353-12.462,8.157-12.686,18.45c-0.224,10.293,5.512,13.049,8.094,14.804
			c2.582,1.755-4.301-12.491-2.275-16.643C49.82,30.054,54.66,17.594,54.66,17.594z"/>
		
			<linearGradient id="SVGID_28_" gradientUnits="userSpaceOnUse" x1="45.3877" y1="26.668" x2="60.8467" y2="26.668" gradientTransform="matrix(0.7845 0.6201 -0.6201 0.7845 28.2646 -19.5315)">
			<stop  offset="0" style="stop-color:#CCFF33"/>
			<stop  offset="0.6485" style="stop-color:#003300"/>
			<a:midPointStop  offset="0" style="stop-color:#CCFF33"/>
			<a:midPointStop  offset="0.5" style="stop-color:#CCFF33"/>
			<a:midPointStop  offset="0.6485" style="stop-color:#003300"/>
		</linearGradient>
		<path fill="url(#SVGID_28_)" d="M61.389,20.16c-3.695,1.528-14.029,5.003-16.665,14.955c-2.635,9.953,2.292,13.98,4.39,16.293
			c2.099,2.311-1.246-13.153,1.699-16.713C53.758,31.136,61.389,20.16,61.389,20.16z"/>
		
			<linearGradient id="SVGID_29_" gradientUnits="userSpaceOnUse" x1="0.8848" y1="18.4863" x2="16.3433" y2="18.4863" gradientTransform="matrix(-0.0153 0.9999 -0.9999 -0.0153 85.8572 35.8256)">
			<stop  offset="0" style="stop-color:#CCFF33"/>
			<stop  offset="0.6485" style="stop-color:#003300"/>
			<a:midPointStop  offset="0" style="stop-color:#CCFF33"/>
			<a:midPointStop  offset="0.5" style="stop-color:#CCFF33"/>
			<a:midPointStop  offset="0.6485" style="stop-color:#003300"/>
		</linearGradient>
		<path fill="url(#SVGID_29_)" d="M83.348,41.883c-3.459-2.003-12.498-8.094-22.004-4.134c-9.504,3.96-9.704,10.32-10.263,13.393
			c-0.561,3.071,9.683-8.988,14.298-8.814C69.994,42.5,83.348,41.883,83.348,41.883z"/>
		
			<linearGradient id="SVGID_30_" gradientUnits="userSpaceOnUse" x1="51.4951" y1="35.7393" x2="66.9541" y2="35.7393" gradientTransform="matrix(0.6271 0.7789 -0.7789 0.6271 48.7082 -33.5586)">
			<stop  offset="0" style="stop-color:#CCFF33"/>
			<stop  offset="0.6485" style="stop-color:#003300"/>
			<a:midPointStop  offset="0" style="stop-color:#CCFF33"/>
			<a:midPointStop  offset="0.5" style="stop-color:#CCFF33"/>
			<a:midPointStop  offset="0.6485" style="stop-color:#003300"/>
		</linearGradient>
		<path fill="url(#SVGID_30_)" d="M68.949,22.945c-3.941,0.67-14.789,1.761-19.571,10.879c-4.779,9.119-0.869,14.14,0.662,16.86
			c1.532,2.72,1.706-13.101,5.368-15.917C59.07,31.952,68.949,22.945,68.949,22.945z"/>
		
			<linearGradient id="SVGID_31_" gradientUnits="userSpaceOnUse" x1="38.7505" y1="36.9102" x2="54.209" y2="36.9102" gradientTransform="matrix(-0.974 -0.2267 0.2267 -0.974 90.766 111.8202)">
			<stop  offset="0" style="stop-color:#CCFF33"/>
			<stop  offset="0.6485" style="stop-color:#003300"/>
			<a:midPointStop  offset="0" style="stop-color:#CCFF33"/>
			<a:midPointStop  offset="0.5" style="stop-color:#CCFF33"/>
			<a:midPointStop  offset="0.6485" style="stop-color:#003300"/>
		</linearGradient>
		<path fill="url(#SVGID_31_)" d="M52.673,81.559c2.69-2.957,10.558-10.502,8.7-20.631c-1.857-10.126-8.033-11.668-10.915-12.866
			c-2.884-1.198,6.731,11.366,5.587,15.84C54.896,68.377,52.673,81.559,52.673,81.559z"/>
		
			<linearGradient id="SVGID_32_" gradientUnits="userSpaceOnUse" x1="30.5083" y1="33.665" x2="45.9683" y2="33.665" gradientTransform="matrix(-0.06 -0.9982 0.9982 -0.06 4.6775 98.1225)">
			<stop  offset="0" style="stop-color:#CCFF33"/>
			<stop  offset="0.6485" style="stop-color:#003300"/>
			<a:midPointStop  offset="0" style="stop-color:#CCFF33"/>
			<a:midPointStop  offset="0.5" style="stop-color:#CCFF33"/>
			<a:midPointStop  offset="0.6485" style="stop-color:#003300"/>
		</linearGradient>
		<path fill="url(#SVGID_32_)" d="M20.096,61.41c3.598,1.738,13.074,7.133,22.252,2.469c9.179-4.666,8.899-11.024,9.226-14.128
			c0.328-3.104-8.979,9.691-13.595,9.865C33.363,59.791,20.096,61.41,20.096,61.41z"/>
		
			<linearGradient id="SVGID_33_" gradientUnits="userSpaceOnUse" x1="40.1245" y1="26.6514" x2="55.583" y2="26.6514" gradientTransform="matrix(-0.7897 -0.6135 0.6135 -0.7897 69.569 117.1414)">
			<stop  offset="0" style="stop-color:#CCFF33"/>
			<stop  offset="0.6485" style="stop-color:#003300"/>
			<a:midPointStop  offset="0" style="stop-color:#CCFF33"/>
			<a:midPointStop  offset="0.5" style="stop-color:#CCFF33"/>
			<a:midPointStop  offset="0.6485" style="stop-color:#003300"/>
		</linearGradient>
		<path fill="url(#SVGID_33_)" d="M40.263,80.973c3.681-1.561,13.985-5.121,16.536-15.098c2.553-9.973-2.41-13.958-4.527-16.252
			c-2.116-2.294,1.357,13.141-1.556,16.725C47.801,69.934,40.263,80.973,40.263,80.973z"/>
		
			<linearGradient id="SVGID_34_" gradientUnits="userSpaceOnUse" x1="47.2046" y1="26.5112" x2="62.6631" y2="26.5112" gradientTransform="matrix(-0.6235 -0.7818 0.7818 -0.6235 58.8096 124.4358)">
			<stop  offset="0" style="stop-color:#CCFF33"/>
			<stop  offset="0.6485" style="stop-color:#003300"/>
			<a:midPointStop  offset="0" style="stop-color:#CCFF33"/>
			<a:midPointStop  offset="0.5" style="stop-color:#CCFF33"/>
			<a:midPointStop  offset="0.6485" style="stop-color:#003300"/>
		</linearGradient>
		<path fill="url(#SVGID_34_)" d="M34.291,76.947c3.946-0.652,14.797-1.693,19.62-10.789c4.824-9.098,0.938-14.137-0.582-16.864
			c-1.52-2.726-1.768,13.095-5.444,15.894C44.21,67.988,34.291,76.947,34.291,76.947z"/>
		
			<linearGradient id="SVGID_35_" gradientUnits="userSpaceOnUse" x1="1.8647" y1="16.9497" x2="17.3228" y2="16.9497" gradientTransform="matrix(0.2415 -0.9704 0.9704 0.2415 15.2649 57.4646)">
			<stop  offset="0" style="stop-color:#CCFF33"/>
			<stop  offset="0.6485" style="stop-color:#003300"/>
			<a:midPointStop  offset="0" style="stop-color:#CCFF33"/>
			<a:midPointStop  offset="0.5" style="stop-color:#CCFF33"/>
			<a:midPointStop  offset="0.6485" style="stop-color:#003300"/>
		</linearGradient>
		<path fill="url(#SVGID_35_)" d="M17.826,50.81c2.915,2.735,10.34,10.717,20.495,9.016c10.154-1.703,11.791-7.854,13.033-10.718
			c1.24-2.864-11.469,6.558-15.925,5.344C30.971,53.236,17.826,50.81,17.826,50.81z"/>
		
			<linearGradient id="SVGID_36_" gradientUnits="userSpaceOnUse" x1="53.2324" y1="35.1836" x2="68.6914" y2="35.1836" gradientTransform="matrix(-0.4342 -0.9008 0.9008 -0.4342 35.7188 133.4646)">
			<stop  offset="0" style="stop-color:#CCFF33"/>
			<stop  offset="0.6485" style="stop-color:#003300"/>
			<a:midPointStop  offset="0" style="stop-color:#CCFF33"/>
			<a:midPointStop  offset="0.5" style="stop-color:#CCFF33"/>
			<a:midPointStop  offset="0.6485" style="stop-color:#003300"/>
		</linearGradient>
		<path fill="url(#SVGID_36_)" d="M27.559,72.52c3.989,0.242,14.802,1.639,21.525-6.16c6.722-7.799,4.052-13.575,3.178-16.571
			c-0.876-2.995-4.633,12.374-8.837,14.286C39.221,65.988,27.559,72.52,27.559,72.52z"/>
		
			<linearGradient id="SVGID_37_" gradientUnits="userSpaceOnUse" x1="38.0825" y1="34.1265" x2="53.541" y2="34.1265" gradientTransform="matrix(0.0918 0.9958 -0.9958 0.0918 93.4584 -6.0364)">
			<stop  offset="0" style="stop-color:#CCFF33"/>
			<stop  offset="0.6485" style="stop-color:#003300"/>
			<a:midPointStop  offset="0" style="stop-color:#CCFF33"/>
			<a:midPointStop  offset="0.5" style="stop-color:#CCFF33"/>
			<a:midPointStop  offset="0.6485" style="stop-color:#003300"/>
		</linearGradient>
		<path fill="url(#SVGID_37_)" d="M79.455,38.731c-3.654-1.621-13.295-6.709-22.32-1.755c-9.026,4.955-8.544,11.3-8.772,14.414
			c-0.227,3.113,8.665-9.972,13.272-10.294C66.244,40.774,79.455,38.731,79.455,38.731z"/>
		
			<linearGradient id="SVGID_38_" gradientUnits="userSpaceOnUse" x1="27.6528" y1="33.5156" x2="43.1089" y2="33.5156" gradientTransform="matrix(-0.9284 0.3716 -0.3716 -0.9284 107.5919 79.9825)">
			<stop  offset="0" style="stop-color:#CCFF33"/>
			<stop  offset="0.6485" style="stop-color:#003300"/>
			<a:midPointStop  offset="0" style="stop-color:#CCFF33"/>
			<a:midPointStop  offset="0.5" style="stop-color:#CCFF33"/>
			<a:midPointStop  offset="0.6485" style="stop-color:#003300"/>
		</linearGradient>
		<path fill="url(#SVGID_38_)" d="M70.602,75.996c0.512-3.961,2.646-14.652-4.676-21.895c-7.316-7.241-13.263-4.971-16.312-4.304
			c-3.048,0.668,12.027,5.468,13.646,9.794C64.883,63.918,70.602,75.996,70.602,75.996z"/>
		
			<linearGradient id="SVGID_39_" gradientUnits="userSpaceOnUse" x1="38.3516" y1="24.4072" x2="53.8096" y2="24.4072" gradientTransform="matrix(-0.3334 0.9428 -0.9428 -0.3334 105.1903 12.4032)">
			<stop  offset="0" style="stop-color:#CCFF33"/>
			<stop  offset="0.6485" style="stop-color:#003300"/>
			<a:midPointStop  offset="0" style="stop-color:#CCFF33"/>
			<a:midPointStop  offset="0.5" style="stop-color:#CCFF33"/>
			<a:midPointStop  offset="0.6485" style="stop-color:#003300"/>
		</linearGradient>
		<path fill="url(#SVGID_39_)" d="M82.809,50.693c-2.641-3.002-9.268-11.658-19.537-10.936c-10.271,0.722-12.489,6.687-14,9.419
			c-1.51,2.732,12.045-5.43,16.365-3.793S82.809,50.693,82.809,50.693z"/>
		
			<linearGradient id="SVGID_40_" gradientUnits="userSpaceOnUse" x1="44.9546" y1="24.7422" x2="60.4131" y2="24.7422" gradientTransform="matrix(-0.5455 0.8381 -0.8381 -0.5455 115.5025 20.3154)">
			<stop  offset="0" style="stop-color:#CCFF33"/>
			<stop  offset="0.6485" style="stop-color:#003300"/>
			<a:midPointStop  offset="0" style="stop-color:#CCFF33"/>
			<a:midPointStop  offset="0.5" style="stop-color:#CCFF33"/>
			<a:midPointStop  offset="0.6485" style="stop-color:#003300"/>
		</linearGradient>
		<path fill="url(#SVGID_40_)" d="M80.871,57.631C79.01,54.092,74.6,44.12,64.449,42.411c-10.154-1.71-13.712,3.567-15.821,5.868
			c-2.108,2.3,12.983-2.449,16.797,0.156C69.242,51.039,80.871,57.631,80.871,57.631z"/>
		
			<linearGradient id="SVGID_41_" gradientUnits="userSpaceOnUse" x1="-0.9082" y1="17.6611" x2="14.5503" y2="17.6611" gradientTransform="matrix(-0.9971 0.0766 -0.0766 -0.9971 65.6686 82.7485)">
			<stop  offset="0" style="stop-color:#CCFF33"/>
			<stop  offset="0.6485" style="stop-color:#003300"/>
			<a:midPointStop  offset="0" style="stop-color:#CCFF33"/>
			<a:midPointStop  offset="0.5" style="stop-color:#CCFF33"/>
			<a:midPointStop  offset="0.6485" style="stop-color:#003300"/>
		</linearGradient>
		<path fill="url(#SVGID_41_)" d="M61.258,81.492c1.676-3.629,6.91-13.189,2.096-22.291c-4.816-9.1-11.168-8.715-14.279-8.99
			c-3.11-0.275,9.837,8.814,10.089,13.43C59.416,68.254,61.258,81.492,61.258,81.492z"/>
		
			<linearGradient id="SVGID_42_" gradientUnits="userSpaceOnUse" x1="50.644" y1="33.959" x2="66.1025" y2="33.959" gradientTransform="matrix(-0.7181 0.696 -0.696 -0.7181 131.349 39.3845)">
			<stop  offset="0" style="stop-color:#CCFF33"/>
			<stop  offset="0.6485" style="stop-color:#003300"/>
			<a:midPointStop  offset="0" style="stop-color:#CCFF33"/>
			<a:midPointStop  offset="0.5" style="stop-color:#CCFF33"/>
			<a:midPointStop  offset="0.6485" style="stop-color:#003300"/>
		</linearGradient>
		<path fill="url(#SVGID_42_)" d="M78.793,65.414c-1.031-3.863-3.111-14.564-12.631-18.488c-9.521-3.922-14.16,0.432-16.729,2.207
			c-2.567,1.775,13.201,0.496,16.342,3.886C68.916,56.405,78.793,65.414,78.793,65.414z"/>
		
			<linearGradient id="SVGID_43_" gradientUnits="userSpaceOnUse" x1="38.3237" y1="38.8359" x2="53.7832" y2="38.8359" gradientTransform="matrix(0.1363 -0.9907 0.9907 0.1363 -9.5536 94.6159)">
			<stop  offset="0" style="stop-color:#CCFF33"/>
			<stop  offset="0.6485" style="stop-color:#003300"/>
			<a:midPointStop  offset="0" style="stop-color:#CCFF33"/>
			<a:midPointStop  offset="0.5" style="stop-color:#CCFF33"/>
			<a:midPointStop  offset="0.6485" style="stop-color:#003300"/>
		</linearGradient>
		<path fill="url(#SVGID_43_)" d="M18.932,54.59c3.191,2.406,11.428,9.549,21.343,6.77c9.913-2.781,10.882-9.07,11.81-12.052
			c0.928-2.981-10.699,7.749-15.263,7.018C32.261,55.594,18.932,54.59,18.932,54.59z"/>
		
			<linearGradient id="SVGID_44_" gradientUnits="userSpaceOnUse" x1="32.2339" y1="34.623" x2="47.6919" y2="34.623" gradientTransform="matrix(0.9885 -0.1514 0.1514 0.9885 -3.8204 7.6327)">
			<stop  offset="0" style="stop-color:#CCFF33"/>
			<stop  offset="0.6485" style="stop-color:#003300"/>
			<a:midPointStop  offset="0" style="stop-color:#CCFF33"/>
			<a:midPointStop  offset="0.5" style="stop-color:#CCFF33"/>
			<a:midPointStop  offset="0.6485" style="stop-color:#003300"/>
		</linearGradient>
		<path fill="url(#SVGID_44_)" d="M36.002,20.301c-1.4,3.744-5.899,13.674-0.413,22.385c5.488,8.712,11.794,7.849,14.915,7.889
			c3.12,0.041-10.476-8.05-11.072-12.631C38.835,33.362,36.002,20.301,36.002,20.301z"/>
		
			<linearGradient id="SVGID_45_" gradientUnits="userSpaceOnUse" x1="40.5425" y1="28.582" x2="56.001" y2="28.582" gradientTransform="matrix(0.5384 -0.8427 0.8427 0.5384 -16.7992 73.9967)">
			<stop  offset="0" style="stop-color:#CCFF33"/>
			<stop  offset="0.6485" style="stop-color:#003300"/>
			<a:midPointStop  offset="0" style="stop-color:#CCFF33"/>
			<a:midPointStop  offset="0.5" style="stop-color:#CCFF33"/>
			<a:midPointStop  offset="0.6485" style="stop-color:#003300"/>
		</linearGradient>
		<path fill="url(#SVGID_45_)" d="M18.377,42.179c1.891,3.522,6.384,13.455,16.55,15.081c10.166,1.625,13.679-3.683,15.769-6.002
			c2.091-2.318-12.961,2.559-16.798-0.014C30.061,48.671,18.377,42.179,18.377,42.179z"/>
		
			<linearGradient id="SVGID_46_" gradientUnits="userSpaceOnUse" x1="48.0645" y1="28.2871" x2="63.5225" y2="28.2871" gradientTransform="matrix(0.7213 -0.6927 0.6927 0.7213 -25.0513 63.9532)">
			<stop  offset="0" style="stop-color:#CCFF33"/>
			<stop  offset="0.6485" style="stop-color:#003300"/>
			<a:midPointStop  offset="0" style="stop-color:#CCFF33"/>
			<a:midPointStop  offset="0.5" style="stop-color:#CCFF33"/>
			<a:midPointStop  offset="0.6485" style="stop-color:#003300"/>
		</linearGradient>
		<path fill="url(#SVGID_46_)" d="M21.836,35.862c1.011,3.868,3.045,14.579,12.544,18.546c9.502,3.967,14.164-0.366,16.74-2.129
			c2.575-1.763-13.201-0.557-16.325-3.96C31.669,44.917,21.836,35.862,21.836,35.862z"/>
		
			<linearGradient id="SVGID_47_" gradientUnits="userSpaceOnUse" x1="3.7983" y1="17.3472" x2="19.2563" y2="17.3472" gradientTransform="matrix(0.9885 0.1514 -0.1514 0.9885 37.6381 14.441)">
			<stop  offset="0" style="stop-color:#CCFF33"/>
			<stop  offset="0.6485" style="stop-color:#003300"/>
			<a:midPointStop  offset="0" style="stop-color:#CCFF33"/>
			<a:midPointStop  offset="0.5" style="stop-color:#CCFF33"/>
			<a:midPointStop  offset="0.6485" style="stop-color:#003300"/>
		</linearGradient>
		<path fill="url(#SVGID_47_)" d="M46.351,17.067c-2.457,3.153-9.724,11.281-7.096,21.235c2.627,9.955,8.903,11.021,11.869,11.993
			c2.966,0.974-7.583-10.817-6.783-15.367C45.142,30.379,46.351,17.067,46.351,17.067z"/>
		
			<linearGradient id="SVGID_48_" gradientUnits="userSpaceOnUse" x1="54.4639" y1="36.7246" x2="69.9229" y2="36.7246" gradientTransform="matrix(0.8571 -0.5151 0.5151 0.8571 -36.1621 41.7885)">
			<stop  offset="0" style="stop-color:#CCFF33"/>
			<stop  offset="0.6485" style="stop-color:#003300"/>
			<a:midPointStop  offset="0" style="stop-color:#CCFF33"/>
			<a:midPointStop  offset="0.5" style="stop-color:#CCFF33"/>
			<a:midPointStop  offset="0.6485" style="stop-color:#003300"/>
		</linearGradient>
		<path fill="url(#SVGID_48_)" d="M25.625,28.752c0.126,3.995-0.271,14.89,8.112,20.868c8.383,5.979,13.89,2.79,16.792,1.643
			c2.904-1.147-12.746-3.475-15.038-7.488C33.202,39.766,25.625,28.752,25.625,28.752z"/>
	</g>
</g>
</svg>
