<?xml version="1.0" encoding="utf-8"?>
<!-- Generator: Adobe Illustrator 15.0.0, SVG Export Plug-In . SVG Version: 6.00 Build 0)  -->
<!DOCTYPE svg PUBLIC "-//W3C//DTD SVG 1.1//EN" "http://www.w3.org/Graphics/SVG/1.1/DTD/svg11.dtd" [
	<!ENTITY ns_flows "http://ns.adobe.com/Flows/1.0/">
	<!ENTITY ns_extend "http://ns.adobe.com/Extensibility/1.0/">
	<!ENTITY ns_ai "http://ns.adobe.com/AdobeIllustrator/10.0/">
	<!ENTITY ns_graphs "http://ns.adobe.com/Graphs/1.0/">
	<!ENTITY ns_vars "http://ns.adobe.com/Variables/1.0/">
	<!ENTITY ns_imrep "http://ns.adobe.com/ImageReplacement/1.0/">
	<!ENTITY ns_sfw "http://ns.adobe.com/SaveForWeb/1.0/">
	<!ENTITY ns_custom "http://ns.adobe.com/GenericCustomNamespace/1.0/">
	<!ENTITY ns_adobe_xpath "http://ns.adobe.com/XPath/1.0/">
]>
<svg version="1.1" xmlns:x="&ns_extend;" xmlns:i="&ns_ai;" xmlns:graph="&ns_graphs;"
	 xmlns="http://www.w3.org/2000/svg" xmlns:xlink="http://www.w3.org/1999/xlink" xmlns:a="http://ns.adobe.com/AdobeSVGViewerExtensions/3.0/"
	 x="0px" y="0px" width="100px" height="100px" viewBox="0 0 100 100" enable-background="new 0 0 100 100" xml:space="preserve">
<metadata>
	<sfw  xmlns="&ns_sfw;">
		<slices></slices>
		<sliceSourceBounds  width="63.646" height="44.573" y="-73.525" x="16.089" bottomLeftOrigin="true"></sliceSourceBounds>
	</sfw>
</metadata>
<g id="Layer_1">
	<polygon fill="#339900" points="53.892,28.952 16.089,73.525 79.734,67.471 	"/>
</g>
<g id="Layer_2">
	<g>
		<g>
			<g>
				<path fill="#EAC011" d="M49.953,60.969c-2.613,2.281-1.551,4.124-8.118,2.991c-1.507-0.261-2.989-0.354-4.519-0.372
					c-1.601-0.019-3.004,0.508-4.493,1.019c-4.524,1.553-8.934,3.433-13.462,4.969c-0.25,0.085-0.192,0.323,0.063,0.236
					c5.021-1.703,9.9-3.802,14.937-5.465c3.771-1.246,7.556,0.358,11.373,0.193c2.414-0.104,2.97-2.092,4.566-3.485
					C50.49,60.888,50.067,60.869,49.953,60.969L49.953,60.969z"/>
			</g>
		</g>
		<g>
			<g>
				<path fill="#EAC011" d="M50.211,60.871c-0.227,4.68-7.471,6.306-11.025,7.308c-2.67,0.753-5.166,2.229-7.518,3.662
					c-0.248,0.15,0.114,0.269,0.276,0.17c4.37-2.661,9.159-3.527,13.657-5.732c2.657-1.303,4.886-2.265,5.041-5.448
					C50.652,60.623,50.22,60.696,50.211,60.871L50.211,60.871z"/>
			</g>
		</g>
		<g>
			<g>
				<path fill="#EAC011" d="M50.542,60.605c-1.414-0.634-3.241-0.484-4.46-1.588c-1.22-1.104-1.345-3.251-1.644-4.738
					c-0.667-3.318-2.393-5.824-4.651-8.277c-0.11-0.119-0.517,0.041-0.396,0.173c2.794,3.036,4.25,6.115,4.992,10.162
					c0.254,1.386,0.862,2.456,1.892,3.388c0.949,0.859,2.924,0.648,3.929,1.1C50.344,60.886,50.731,60.69,50.542,60.605
					L50.542,60.605z"/>
			</g>
		</g>
		<g>
			<g>
				<path fill="#EAC011" d="M50.807,60.614c-0.54-4.44,5.859-7.061,8.958-8.361c2.523-1.06,4.791-2.667,6.88-4.414
					c0.222-0.187-0.126-0.297-0.277-0.171c-1.811,1.516-3.694,2.792-5.783,3.906c-1.635,0.871-3.487,1.309-5.036,2.356
					c-2.695,1.823-5.603,3.223-5.167,6.799C50.402,60.907,50.831,60.805,50.807,60.614L50.807,60.614z"/>
			</g>
		</g>
		<g>
			<g>
				<path fill="#EAC011" d="M50.559,60.911c2.953-1.695,5.049-2.641,8.606-1.377c2.679,0.951,5.718,1.091,8.21,2.407
					c2.717,1.436,5.816,4.311,8.975,4.578c0.176,0.015,0.45-0.237,0.16-0.262c-4.207-0.356-7.204-5.166-11.35-5.605
					c-3.203-0.34-6.524-2.638-9.696-2.465c-2.599,0.142-2.922,1.283-5.175,2.577C50.038,60.908,50.41,60.997,50.559,60.911
					L50.559,60.911z"/>
			</g>
		</g>
		<g>
			<g>
				<path fill="#EAC011" d="M50.706,60.565c-7.722-3.938,1.922-22.004,1.792-28.522c-0.005-0.209-0.435-0.132-0.432,0.04
					c0.09,4.434-2,9.226-3.041,13.496c-1.091,4.48-3.805,12.591,1.348,15.219C50.522,60.874,50.905,60.667,50.706,60.565
					L50.706,60.565z"/>
			</g>
		</g>
	</g>
</g>
</svg>
