<?xml version="1.0" encoding="utf-8"?>
<!-- Generator: Adobe Illustrator 15.0.0, SVG Export Plug-In . SVG Version: 6.00 Build 0)  -->
<!DOCTYPE svg PUBLIC "-//W3C//DTD SVG 1.1//EN" "http://www.w3.org/Graphics/SVG/1.1/DTD/svg11.dtd" [
	<!ENTITY ns_flows "http://ns.adobe.com/Flows/1.0/">
	<!ENTITY ns_extend "http://ns.adobe.com/Extensibility/1.0/">
	<!ENTITY ns_ai "http://ns.adobe.com/AdobeIllustrator/10.0/">
	<!ENTITY ns_graphs "http://ns.adobe.com/Graphs/1.0/">
	<!ENTITY ns_vars "http://ns.adobe.com/Variables/1.0/">
	<!ENTITY ns_imrep "http://ns.adobe.com/ImageReplacement/1.0/">
	<!ENTITY ns_sfw "http://ns.adobe.com/SaveForWeb/1.0/">
	<!ENTITY ns_custom "http://ns.adobe.com/GenericCustomNamespace/1.0/">
	<!ENTITY ns_adobe_xpath "http://ns.adobe.com/XPath/1.0/">
]>
<svg version="1.1" xmlns:x="&ns_extend;" xmlns:i="&ns_ai;" xmlns:graph="&ns_graphs;"
	 xmlns="http://www.w3.org/2000/svg" xmlns:xlink="http://www.w3.org/1999/xlink" xmlns:a="http://ns.adobe.com/AdobeSVGViewerExtensions/3.0/"
	 x="0px" y="0px" width="100px" height="100px" viewBox="0 0 100 100" enable-background="new 0 0 100 100" xml:space="preserve">
<metadata>
	<sfw  xmlns="&ns_sfw;">
		<slices></slices>
		<sliceSourceBounds  width="61.777" height="61.603" y="-79.511" x="19.311" bottomLeftOrigin="true"></sliceSourceBounds>
	</sfw>
</metadata>
<g id="Layer_1">
	<path fill="none" stroke="#FF4F1F" stroke-width="1.3076" stroke-miterlimit="10" d="M80.261,48.707
		c0,16.655-13.498,30.153-30.148,30.153c-16.65,0-30.147-13.498-30.147-30.153c0-16.65,13.498-30.148,30.147-30.148
		C66.763,18.559,80.261,32.057,80.261,48.707z"/>
</g>
<g id="Layer_2">
	<g>
		<g>
			<path fill="#FF4F1F" d="M23.882,32.914c0.2,8.08,13.769,11.159,19.838,12.752c5.184,1.36,9.81,0.477,14.878-0.834
				c9.519-2.461,13.777,2.523,20.754,7.404c0.588,0.411,2.347-0.428,1.518-1.008c-3.426-2.396-6.747-6.244-10.831-7.586
				c-4.556-1.497-8.754-0.692-13.293,0.481c-7.015,1.814-12.883,0.455-19.463-2.11c-4.251-1.657-11.32-3.703-11.458-9.304
				C25.802,31.809,23.865,32.193,23.882,32.914L23.882,32.914z"/>
		</g>
	</g>
	<g>
		<g>
			<path fill="#FF4F1F" d="M32.292,24.582c6.381,3.991,13.338,5.902,20.79,6.64c4.487,0.444,8.985,0.531,13.464,1.128
				c3.043,0.405,5.809,1.188,8.906,0.907c0.969-0.088,1.584-1.248,0.248-1.127c-3.377,0.307-6.59-0.771-9.914-1.128
				c-3.422-0.368-6.854-0.569-10.287-0.809c-7.765-0.542-15.035-2.421-21.677-6.575C33.257,23.265,31.48,24.074,32.292,24.582
				L32.292,24.582z"/>
		</g>
	</g>
</g>
</svg>
