<?xml version="1.0" encoding="utf-8"?>
<!-- Generator: Adobe Illustrator 15.0.0, SVG Export Plug-In . SVG Version: 6.00 Build 0)  -->
<!DOCTYPE svg PUBLIC "-//W3C//DTD SVG 1.1//EN" "http://www.w3.org/Graphics/SVG/1.1/DTD/svg11.dtd" [
	<!ENTITY ns_flows "http://ns.adobe.com/Flows/1.0/">
	<!ENTITY ns_extend "http://ns.adobe.com/Extensibility/1.0/">
	<!ENTITY ns_ai "http://ns.adobe.com/AdobeIllustrator/10.0/">
	<!ENTITY ns_graphs "http://ns.adobe.com/Graphs/1.0/">
	<!ENTITY ns_vars "http://ns.adobe.com/Variables/1.0/">
	<!ENTITY ns_imrep "http://ns.adobe.com/ImageReplacement/1.0/">
	<!ENTITY ns_sfw "http://ns.adobe.com/SaveForWeb/1.0/">
	<!ENTITY ns_custom "http://ns.adobe.com/GenericCustomNamespace/1.0/">
	<!ENTITY ns_adobe_xpath "http://ns.adobe.com/XPath/1.0/">
]>
<svg version="1.1" xmlns:x="&ns_extend;" xmlns:i="&ns_ai;" xmlns:graph="&ns_graphs;"
	 xmlns="http://www.w3.org/2000/svg" xmlns:xlink="http://www.w3.org/1999/xlink" xmlns:a="http://ns.adobe.com/AdobeSVGViewerExtensions/3.0/"
	 x="0px" y="0px" width="100px" height="100px" viewBox="0 0 100 100" enable-background="new 0 0 100 100" xml:space="preserve">
<metadata>
	<sfw  xmlns="&ns_sfw;">
		<slices></slices>
		<sliceSourceBounds  width="94.583" height="93.096" y="-94.387" x="2.747" bottomLeftOrigin="true"></sliceSourceBounds>
	</sfw>
</metadata>
<g id="Layer_1">
</g>
<g id="Layer_2">
	<g opacity="0.75">
		<linearGradient id="SVGID_1_" gradientUnits="userSpaceOnUse" x1="30.7559" y1="28.4849" x2="53.0703" y2="28.4849">
			<stop  offset="0" style="stop-color:#00FFFF"/>
			<stop  offset="0.6485" style="stop-color:#00FA00"/>
			<a:midPointStop  offset="0" style="stop-color:#00FFFF"/>
			<a:midPointStop  offset="0.5" style="stop-color:#00FFFF"/>
			<a:midPointStop  offset="0.6485" style="stop-color:#00FA00"/>
		</linearGradient>
		<path fill="url(#SVGID_1_)" d="M38.277,5.286c-2.815,5.037-11.407,18.222-5.481,31.852s15.111,13.778,19.556,14.518
			c4.443,0.74-13.186-13.777-13.038-20.444S38.277,5.286,38.277,5.286z"/>
		
			<linearGradient id="SVGID_2_" gradientUnits="userSpaceOnUse" x1="21.4585" y1="27.9297" x2="43.772" y2="27.9297" gradientTransform="matrix(0.2847 0.9586 -0.9586 0.2847 86.9528 -6.1736)">
			<stop  offset="0" style="stop-color:#00FFFF"/>
			<stop  offset="0.6485" style="stop-color:#00FA00"/>
			<a:midPointStop  offset="0" style="stop-color:#00FFFF"/>
			<a:midPointStop  offset="0.5" style="stop-color:#00FFFF"/>
			<a:midPointStop  offset="0.6485" style="stop-color:#00FA00"/>
		</linearGradient>
		<path fill="url(#SVGID_2_)" d="M90.67,22.953c-5.629-1.264-20.715-5.747-32.094,3.815c-11.378,9.561-8.904,18.409-8.349,22.88
			c0.556,4.47,9.454-16.562,15.886-18.319C72.547,29.573,90.67,22.953,90.67,22.953z"/>
		
			<linearGradient id="SVGID_3_" gradientUnits="userSpaceOnUse" x1="30.6465" y1="18.8662" x2="52.9609" y2="18.8662" gradientTransform="matrix(0.9082 0.4186 -0.4186 0.9082 19.4389 -9.9887)">
			<stop  offset="0" style="stop-color:#00FFFF"/>
			<stop  offset="0.6485" style="stop-color:#00FA00"/>
			<a:midPointStop  offset="0" style="stop-color:#00FFFF"/>
			<a:midPointStop  offset="0.5" style="stop-color:#00FFFF"/>
			<a:midPointStop  offset="0.6485" style="stop-color:#00FA00"/>
		</linearGradient>
		<path fill="url(#SVGID_3_)" d="M55.916,2.052c-4.665,3.396-17.987,11.775-18.311,26.633c-0.323,14.859,7.957,18.838,11.684,21.371
			c3.727,2.534-6.208-18.031-3.283-24.024C48.931,20.039,55.916,2.052,55.916,2.052z"/>
		
			<linearGradient id="SVGID_4_" gradientUnits="userSpaceOnUse" x1="37.4717" y1="19.8662" x2="59.7852" y2="19.8662" gradientTransform="matrix(0.7845 0.6201 -0.6201 0.7845 28.2646 -19.5315)">
			<stop  offset="0" style="stop-color:#00FFFF"/>
			<stop  offset="0.6485" style="stop-color:#00FA00"/>
			<a:midPointStop  offset="0" style="stop-color:#00FFFF"/>
			<a:midPointStop  offset="0.5" style="stop-color:#00FFFF"/>
			<a:midPointStop  offset="0.6485" style="stop-color:#00FA00"/>
		</linearGradient>
		<path fill="url(#SVGID_4_)" d="M65.629,5.756c-5.332,2.206-20.25,7.221-24.053,21.587c-3.805,14.369,3.309,20.182,6.336,23.518
			c3.028,3.336-1.799-18.985,2.452-24.125C54.614,21.6,65.629,5.756,65.629,5.756z"/>
		
			<linearGradient id="SVGID_5_" gradientUnits="userSpaceOnUse" x1="-6.4087" y1="11.707" x2="15.9053" y2="11.707" gradientTransform="matrix(-0.0153 0.9999 -0.9999 -0.0153 85.8572 35.8256)">
			<stop  offset="0" style="stop-color:#00FFFF"/>
			<stop  offset="0.6485" style="stop-color:#00FA00"/>
			<a:midPointStop  offset="0" style="stop-color:#00FFFF"/>
			<a:midPointStop  offset="0.5" style="stop-color:#00FFFF"/>
			<a:midPointStop  offset="0.6485" style="stop-color:#00FA00"/>
		</linearGradient>
		<path fill="url(#SVGID_5_)" d="M97.33,37.114c-4.994-2.892-18.045-11.685-31.764-5.968c-13.72,5.717-14.009,14.898-14.816,19.332
			c-0.809,4.432,13.977-12.973,20.641-12.723S97.33,37.114,97.33,37.114z"/>
		
			<linearGradient id="SVGID_6_" gradientUnits="userSpaceOnUse" x1="43.6895" y1="28.6938" x2="66.0029" y2="28.6938" gradientTransform="matrix(0.6271 0.7789 -0.7789 0.6271 48.7082 -33.5586)">
			<stop  offset="0" style="stop-color:#00FFFF"/>
			<stop  offset="0.6485" style="stop-color:#00FA00"/>
			<a:midPointStop  offset="0" style="stop-color:#00FFFF"/>
			<a:midPointStop  offset="0.5" style="stop-color:#00FFFF"/>
			<a:midPointStop  offset="0.6485" style="stop-color:#00FA00"/>
		</linearGradient>
		<path fill="url(#SVGID_6_)" d="M76.543,9.776c-5.689,0.967-21.348,2.542-28.249,15.706c-6.9,13.163-1.256,20.411,0.954,24.337
			c2.211,3.926,2.463-18.911,7.75-22.976C62.283,22.777,76.543,9.776,76.543,9.776z"/>
		
			<linearGradient id="SVGID_7_" gradientUnits="userSpaceOnUse" x1="33.166" y1="31.6289" x2="55.4814" y2="31.6289" gradientTransform="matrix(-0.974 -0.2267 0.2267 -0.974 90.766 111.8202)">
			<stop  offset="0" style="stop-color:#00FFFF"/>
			<stop  offset="0.6485" style="stop-color:#00FA00"/>
			<a:midPointStop  offset="0" style="stop-color:#00FFFF"/>
			<a:midPointStop  offset="0.5" style="stop-color:#00FFFF"/>
			<a:midPointStop  offset="0.6485" style="stop-color:#00FA00"/>
		</linearGradient>
		<path fill="url(#SVGID_7_)" d="M53.048,94.387c3.883-4.268,15.241-15.162,12.56-29.781c-2.682-14.618-11.596-16.844-15.757-18.573
			s9.72,16.407,8.063,22.868C56.259,75.359,53.048,94.387,53.048,94.387z"/>
		
			<linearGradient id="SVGID_8_" gradientUnits="userSpaceOnUse" x1="25.1587" y1="26.5112" x2="47.4736" y2="26.5112" gradientTransform="matrix(-0.06 -0.9982 0.9982 -0.06 4.6775 98.1225)">
			<stop  offset="0" style="stop-color:#00FFFF"/>
			<stop  offset="0.6485" style="stop-color:#00FA00"/>
			<a:midPointStop  offset="0" style="stop-color:#00FFFF"/>
			<a:midPointStop  offset="0.5" style="stop-color:#00FFFF"/>
			<a:midPointStop  offset="0.6485" style="stop-color:#00FA00"/>
		</linearGradient>
		<path fill="url(#SVGID_8_)" d="M6.022,65.303c5.196,2.508,18.874,10.293,32.123,3.561c13.25-6.734,12.847-15.912,13.318-20.393
			c0.472-4.48-12.962,13.989-19.625,14.241C25.174,62.963,6.022,65.303,6.022,65.303z"/>
		
			<linearGradient id="SVGID_9_" gradientUnits="userSpaceOnUse" x1="34.1528" y1="20.7104" x2="56.4668" y2="20.7104" gradientTransform="matrix(-0.7897 -0.6135 0.6135 -0.7897 69.569 117.1414)">
			<stop  offset="0" style="stop-color:#00FFFF"/>
			<stop  offset="0.6485" style="stop-color:#00FA00"/>
			<a:midPointStop  offset="0" style="stop-color:#00FFFF"/>
			<a:midPointStop  offset="0.5" style="stop-color:#00FFFF"/>
			<a:midPointStop  offset="0.6485" style="stop-color:#00FA00"/>
		</linearGradient>
		<path fill="url(#SVGID_9_)" d="M35.135,93.539c5.313-2.252,20.188-7.393,23.871-21.791s-3.479-20.15-6.535-23.463
			c-3.056-3.311,1.959,18.969-2.248,24.145C46.016,77.604,35.135,93.539,35.135,93.539z"/>
		
			<linearGradient id="SVGID_10_" gradientUnits="userSpaceOnUse" x1="41.3125" y1="20.8359" x2="63.6279" y2="20.8359" gradientTransform="matrix(-0.6235 -0.7818 0.7818 -0.6235 58.8096 124.4358)">
			<stop  offset="0" style="stop-color:#00FFFF"/>
			<stop  offset="0.6485" style="stop-color:#00FA00"/>
			<a:midPointStop  offset="0" style="stop-color:#00FFFF"/>
			<a:midPointStop  offset="0.5" style="stop-color:#00FFFF"/>
			<a:midPointStop  offset="0.6485" style="stop-color:#00FA00"/>
		</linearGradient>
		<path fill="url(#SVGID_10_)" d="M26.514,87.729c5.694-0.939,21.36-2.443,28.32-15.572c6.963-13.133,1.353-20.408-0.841-24.344
			c-2.192-3.936-2.55,18.901-7.856,22.942C40.833,74.795,26.514,87.729,26.514,87.729z"/>
		
			<linearGradient id="SVGID_11_" gradientUnits="userSpaceOnUse" x1="-3.3018" y1="9.249" x2="19.0117" y2="9.249" gradientTransform="matrix(0.2415 -0.9704 0.9704 0.2415 15.2649 57.4646)">
			<stop  offset="0" style="stop-color:#00FFFF"/>
			<stop  offset="0.6485" style="stop-color:#00FA00"/>
			<a:midPointStop  offset="0" style="stop-color:#00FFFF"/>
			<a:midPointStop  offset="0.5" style="stop-color:#00FFFF"/>
			<a:midPointStop  offset="0.6485" style="stop-color:#00FA00"/>
		</linearGradient>
		<path fill="url(#SVGID_11_)" d="M2.747,50c4.208,3.949,14.927,15.471,29.584,13.014c14.657-2.457,17.021-11.336,18.813-15.47
			c1.791-4.134-16.555,9.466-22.988,7.712C21.722,53.501,2.747,50,2.747,50z"/>
		
			<linearGradient id="SVGID_12_" gradientUnits="userSpaceOnUse" x1="47.6509" y1="28.7871" x2="69.9648" y2="28.7871" gradientTransform="matrix(-0.4342 -0.9008 0.9008 -0.4342 35.7188 133.4646)">
			<stop  offset="0" style="stop-color:#00FFFF"/>
			<stop  offset="0.6485" style="stop-color:#00FA00"/>
			<a:midPointStop  offset="0" style="stop-color:#00FFFF"/>
			<a:midPointStop  offset="0.5" style="stop-color:#00FFFF"/>
			<a:midPointStop  offset="0.6485" style="stop-color:#00FA00"/>
		</linearGradient>
		<path fill="url(#SVGID_12_)" d="M16.796,81.34c5.759,0.348,21.368,2.363,31.073-8.895c9.704-11.256,5.85-19.596,4.587-23.919
			c-1.263-4.325-6.686,17.861-12.756,20.623C33.631,71.908,16.796,81.34,16.796,81.34z"/>
		
			<linearGradient id="SVGID_13_" gradientUnits="userSpaceOnUse" x1="30.7559" y1="28.4844" x2="53.0703" y2="28.4844" gradientTransform="matrix(0.0918 0.9958 -0.9958 0.0918 93.4584 -6.0364)">
			<stop  offset="0" style="stop-color:#00FFFF"/>
			<stop  offset="0.6485" style="stop-color:#00FA00"/>
			<a:midPointStop  offset="0" style="stop-color:#00FFFF"/>
			<a:midPointStop  offset="0.5" style="stop-color:#00FFFF"/>
			<a:midPointStop  offset="0.6485" style="stop-color:#00FA00"/>
		</linearGradient>
		<path fill="url(#SVGID_13_)" d="M91.71,32.564c-5.274-2.34-19.192-9.686-32.221-2.533c-13.028,7.152-12.333,16.312-12.661,20.807
			c-0.329,4.493,12.508-14.395,19.16-14.86C72.641,35.513,91.71,32.564,91.71,32.564z"/>
		
			<linearGradient id="SVGID_14_" gradientUnits="userSpaceOnUse" x1="21.4595" y1="27.9297" x2="43.7729" y2="27.9297" gradientTransform="matrix(-0.9284 0.3716 -0.3716 -0.9284 107.5919 79.9825)">
			<stop  offset="0" style="stop-color:#00FFFF"/>
			<stop  offset="0.6485" style="stop-color:#00FA00"/>
			<a:midPointStop  offset="0" style="stop-color:#00FFFF"/>
			<a:midPointStop  offset="0.5" style="stop-color:#00FFFF"/>
			<a:midPointStop  offset="0.6485" style="stop-color:#00FA00"/>
		</linearGradient>
		<path fill="url(#SVGID_14_)" d="M78.929,86.358c0.742-5.721,3.82-21.154-6.746-31.607c-10.565-10.452-19.148-7.176-23.55-6.212
			c-4.4,0.964,17.36,7.893,19.7,14.136C70.673,68.92,78.929,86.358,78.929,86.358z"/>
		
			<linearGradient id="SVGID_15_" gradientUnits="userSpaceOnUse" x1="30.6465" y1="18.8662" x2="52.9609" y2="18.8662" gradientTransform="matrix(-0.3334 0.9428 -0.9428 -0.3334 105.1903 12.4032)">
			<stop  offset="0" style="stop-color:#00FFFF"/>
			<stop  offset="0.6485" style="stop-color:#00FA00"/>
			<a:midPointStop  offset="0" style="stop-color:#00FFFF"/>
			<a:midPointStop  offset="0.5" style="stop-color:#00FFFF"/>
			<a:midPointStop  offset="0.6485" style="stop-color:#00FA00"/>
		</linearGradient>
		<path fill="url(#SVGID_15_)" d="M96.551,49.832c-3.811-4.333-13.377-16.83-28.202-15.787
			c-14.827,1.043-18.028,9.653-20.208,13.597c-2.181,3.943,17.385-7.837,23.622-5.476C77.998,44.528,96.551,49.832,96.551,49.832z"
			/>
		
			<linearGradient id="SVGID_16_" gradientUnits="userSpaceOnUse" x1="37.4722" y1="19.8652" x2="59.7861" y2="19.8652" gradientTransform="matrix(-0.5455 0.8381 -0.8381 -0.5455 115.5025 20.3154)">
			<stop  offset="0" style="stop-color:#00FFFF"/>
			<stop  offset="0.6485" style="stop-color:#00FA00"/>
			<a:midPointStop  offset="0" style="stop-color:#00FFFF"/>
			<a:midPointStop  offset="0.5" style="stop-color:#00FFFF"/>
			<a:midPointStop  offset="0.6485" style="stop-color:#00FA00"/>
		</linearGradient>
		<path fill="url(#SVGID_16_)" d="M93.754,59.845c-2.687-5.107-9.051-19.501-23.705-21.97c-14.658-2.469-19.793,5.149-22.837,8.47
			c-3.044,3.322,18.74-3.535,24.248,0.226C76.966,50.331,93.754,59.845,93.754,59.845z"/>
		
			<linearGradient id="SVGID_17_" gradientUnits="userSpaceOnUse" x1="-6.4092" y1="11.7075" x2="15.9048" y2="11.7075" gradientTransform="matrix(-0.9971 0.0766 -0.0766 -0.9971 65.6686 82.7485)">
			<stop  offset="0" style="stop-color:#00FFFF"/>
			<stop  offset="0.6485" style="stop-color:#00FA00"/>
			<a:midPointStop  offset="0" style="stop-color:#00FFFF"/>
			<a:midPointStop  offset="0.5" style="stop-color:#00FFFF"/>
			<a:midPointStop  offset="0.6485" style="stop-color:#00FA00"/>
		</linearGradient>
		<path fill="url(#SVGID_17_)" d="M65.439,94.291c2.421-5.238,9.979-19.041,3.026-32.178c-6.953-13.136-16.122-12.581-20.611-12.978
			c-4.488-0.398,14.202,12.726,14.564,19.385C62.782,75.179,65.439,94.291,65.439,94.291z"/>
		
			<linearGradient id="SVGID_18_" gradientUnits="userSpaceOnUse" x1="43.6895" y1="28.6934" x2="66.0029" y2="28.6934" gradientTransform="matrix(-0.7181 0.696 -0.696 -0.7181 131.349 39.3845)">
			<stop  offset="0" style="stop-color:#00FFFF"/>
			<stop  offset="0.6485" style="stop-color:#00FA00"/>
			<a:midPointStop  offset="0" style="stop-color:#00FFFF"/>
			<a:midPointStop  offset="0.5" style="stop-color:#00FFFF"/>
			<a:midPointStop  offset="0.6485" style="stop-color:#00FA00"/>
		</linearGradient>
		<path fill="url(#SVGID_18_)" d="M90.753,71.081c-1.485-5.576-4.492-21.023-18.233-26.687c-13.741-5.662-20.44,0.624-24.146,3.185
			c-3.707,2.563,19.057,0.716,23.591,5.607C76.497,58.076,90.753,71.081,90.753,71.081z"/>
		
			<linearGradient id="SVGID_19_" gradientUnits="userSpaceOnUse" x1="33.1665" y1="31.6289" x2="55.4814" y2="31.6289" gradientTransform="matrix(0.1363 -0.9907 0.9907 0.1363 -9.5536 94.6159)">
			<stop  offset="0" style="stop-color:#00FFFF"/>
			<stop  offset="0.6485" style="stop-color:#00FA00"/>
			<a:midPointStop  offset="0" style="stop-color:#00FFFF"/>
			<a:midPointStop  offset="0.5" style="stop-color:#00FFFF"/>
			<a:midPointStop  offset="0.6485" style="stop-color:#00FA00"/>
		</linearGradient>
		<path fill="url(#SVGID_19_)" d="M4.342,55.456c4.606,3.475,16.498,13.784,30.809,9.771c14.31-4.013,15.708-13.094,17.047-17.396
			s-15.445,11.185-22.03,10.129C23.584,56.906,4.342,55.456,4.342,55.456z"/>
		
			<linearGradient id="SVGID_20_" gradientUnits="userSpaceOnUse" x1="25.1582" y1="26.5117" x2="47.4722" y2="26.5117" gradientTransform="matrix(0.9885 -0.1514 0.1514 0.9885 -3.8204 7.6327)">
			<stop  offset="0" style="stop-color:#00FFFF"/>
			<stop  offset="0.6485" style="stop-color:#00FA00"/>
			<a:midPointStop  offset="0" style="stop-color:#00FFFF"/>
			<a:midPointStop  offset="0.5" style="stop-color:#00FFFF"/>
			<a:midPointStop  offset="0.6485" style="stop-color:#00FA00"/>
		</linearGradient>
		<path fill="url(#SVGID_20_)" d="M28.985,5.958c-2.02,5.404-8.516,19.739-0.596,32.314c7.923,12.576,17.025,11.331,21.53,11.389
			c4.504,0.059-15.12-11.622-15.983-18.234C33.074,24.814,28.985,5.958,28.985,5.958z"/>
		
			<linearGradient id="SVGID_21_" gradientUnits="userSpaceOnUse" x1="34.1533" y1="20.7119" x2="56.4668" y2="20.7119" gradientTransform="matrix(0.5384 -0.8427 0.8427 0.5384 -16.7992 73.9967)">
			<stop  offset="0" style="stop-color:#00FFFF"/>
			<stop  offset="0.6485" style="stop-color:#00FA00"/>
			<a:midPointStop  offset="0" style="stop-color:#00FFFF"/>
			<a:midPointStop  offset="0.5" style="stop-color:#00FFFF"/>
			<a:midPointStop  offset="0.6485" style="stop-color:#00FA00"/>
		</linearGradient>
		<path fill="url(#SVGID_21_)" d="M3.542,37.541c2.73,5.084,9.215,19.423,23.891,21.769s19.746-5.315,22.764-8.662
			c3.016-3.347-18.709,3.692-24.25-0.021C20.409,46.912,3.542,37.541,3.542,37.541z"/>
		
			<linearGradient id="SVGID_22_" gradientUnits="userSpaceOnUse" x1="41.3125" y1="20.8359" x2="63.6279" y2="20.8359" gradientTransform="matrix(0.7213 -0.6927 0.6927 0.7213 -25.0513 63.9532)">
			<stop  offset="0" style="stop-color:#00FFFF"/>
			<stop  offset="0.6485" style="stop-color:#00FA00"/>
			<a:midPointStop  offset="0" style="stop-color:#00FFFF"/>
			<a:midPointStop  offset="0.5" style="stop-color:#00FFFF"/>
			<a:midPointStop  offset="0.6485" style="stop-color:#00FA00"/>
		</linearGradient>
		<path fill="url(#SVGID_22_)" d="M8.536,28.422c1.458,5.584,4.395,21.046,18.107,26.771c13.717,5.727,20.446-0.528,24.164-3.073
			c3.717-2.545-19.055-0.804-23.566-5.716C22.729,41.494,8.536,28.422,8.536,28.422z"/>
		
			<linearGradient id="SVGID_23_" gradientUnits="userSpaceOnUse" x1="-3.3013" y1="9.249" x2="19.0122" y2="9.249" gradientTransform="matrix(0.9885 0.1514 -0.1514 0.9885 37.6381 14.441)">
			<stop  offset="0" style="stop-color:#00FFFF"/>
			<stop  offset="0.6485" style="stop-color:#00FA00"/>
			<a:midPointStop  offset="0" style="stop-color:#00FFFF"/>
			<a:midPointStop  offset="0.5" style="stop-color:#00FFFF"/>
			<a:midPointStop  offset="0.6485" style="stop-color:#00FA00"/>
		</linearGradient>
		<path fill="url(#SVGID_23_)" d="M43.922,1.291C40.377,5.843,29.888,17.575,33.68,31.945c3.793,14.37,12.851,15.908,17.133,17.313
			c4.281,1.404-10.947-15.615-9.791-22.183C42.178,20.508,43.922,1.291,43.922,1.291z"/>
		
			<linearGradient id="SVGID_24_" gradientUnits="userSpaceOnUse" x1="47.6504" y1="28.7871" x2="69.9648" y2="28.7871" gradientTransform="matrix(0.8571 -0.5151 0.5151 0.8571 -36.1621 41.7885)">
			<stop  offset="0" style="stop-color:#00FFFF"/>
			<stop  offset="0.6485" style="stop-color:#00FA00"/>
			<a:midPointStop  offset="0" style="stop-color:#00FFFF"/>
			<a:midPointStop  offset="0.5" style="stop-color:#00FFFF"/>
			<a:midPointStop  offset="0.6485" style="stop-color:#00FA00"/>
		</linearGradient>
		<path fill="url(#SVGID_24_)" d="M14.005,18.159c0.183,5.767-0.391,21.495,11.71,30.125c12.1,8.629,20.05,4.025,24.24,2.371
			c4.19-1.654-18.399-5.017-21.707-10.808C24.943,34.057,14.005,18.159,14.005,18.159z"/>
	</g>
</g>
</svg>
